<svg width="175" height="46" viewBox="0 0 175 46" fill="none" xmlns="http://www.w3.org/2000/svg">
<path d="M91.3968 45.2743C83.281 45.2743 82.7771 40.4483 84.2766 34.9637H90.8318C90.1941 37.9912 89.7877 40.5354 93.3903 40.5354C95.6054 40.5354 96.9944 39.0892 97.447 36.9368C98.6458 31.2337 85.5259 30.8834 87.5111 21.4483C88.5529 16.4909 91.728 12.542 99.7138 12.542C106.094 12.542 108.654 15.4369 106.826 22.0646H100.445C100.944 19.6937 101.061 17.2805 98.414 17.2805C96.2874 17.2805 94.7797 18.4663 94.3185 20.6583C93.0528 26.6689 106.358 26.1425 104.262 36.1044C102.535 44.3102 96.3872 45.2743 91.3968 45.2743ZM129.713 44.7481L136.378 13.069H153.479L152.454 17.9397H141.907L140.264 25.7496H149.986L148.961 30.62H139.238L137.292 39.8789H148.186L147.162 44.7481H129.713ZM123.337 25.7494L126.005 13.0684H132.559L125.893 44.7503H119.343L122.315 30.6202H114.805L111.833 44.7503H105.278L111.942 13.0684H118.497L115.83 25.7494H123.337ZM74.4495 22.0647L63.4625 44.7504H56.8548L72.1992 13.0689H80.8368L82.68 44.7504H75.774L74.4495 22.0647ZM167.01 13.0663C175.603 13.0663 175.993 18.8589 173.915 28.7321C172.89 33.6053 171.284 44.7482 160.084 44.7482H149.409C151.63 34.1875 153.851 23.6259 156.073 13.0663H167.01ZM167.238 28.9083C168.464 23.0726 169.546 17.9394 164.988 17.9394H161.602C160.065 25.2519 158.526 32.5643 156.987 39.8791H160.155C164.149 39.8791 165.566 36.85 167.238 28.9083ZM55.2942 44.7504H48.7421L51.7136 30.6211H44.2042L41.2323 44.7504H34.6767L41.3431 13.0693H47.8957L45.2284 25.7496H52.7381L55.4046 13.0693H61.9571L55.2942 44.7504ZM21.637 25.7494L23.2789 17.9395H15.7727L14.1276 25.7494H21.637ZM36.3855 17.9395H29.8338L28.1914 25.7494H34.7432L33.7182 30.621H27.1673L24.1927 44.7503H17.6405L20.612 30.621H13.1039L10.1316 44.7503H3.57869L6.55056 30.621H0L1.02416 25.7494H7.57472L9.21667 17.9395H2.66611L3.69066 13.0692H10.2416L12.9089 0.395996H19.461L16.7965 13.0692H24.3058L26.9711 0.395996H33.5244L30.8591 13.0692H37.4105L36.3855 17.9395Z" fill="black"/>
</svg>
