<svg width="195" height="21" viewBox="0 0 195 21" fill="none" xmlns="http://www.w3.org/2000/svg">
<g clip-path="url(#clip0_112_3248)">
<path d="M96.2638 20.8248L105.696 0.384766H102.022L92.5898 20.8248H96.2638Z" fill="black"/>
<path d="M96.1225 6.89477L99.1252 0.384766H95.4513L92.4839 6.82477L96.1225 6.89477Z" fill="black"/>
<path fill-rule="evenodd" clip-rule="evenodd" d="M9.85598 21C15.6141 21 18.7228 18.83 18.7228 14.98C18.7228 11.725 16.356 9.695 11.6223 8.925L8.33696 8.4C5.8288 7.945 4.76902 7.245 4.76902 5.74C4.76902 4.235 6.46467 3.185 9.46739 3.185H9.92663C13 3.185 14.9429 4.41 15.2962 6.58H19.1114C18.7228 2.52 15.3315 0 9.71467 0C3.9212 0 1.13043 2.73 1.13043 5.915C1.13043 9.52 3.1087 11.06 7.77174 11.865L10.9864 12.355C13.8832 12.845 15.0842 13.685 15.0842 15.12C15.0842 16.8 13.4946 17.815 10.0679 17.815H9.6087C6.04076 17.815 3.88587 16.485 3.81522 13.965H0C0.0353261 18.62 3.77989 21 9.85598 21ZM40.6957 20.72V17.535H26.0707V11.76H38.6467V8.575H26.0707V3.465H40.413V0.28H22.4321V20.685L40.6957 20.72ZM62.3152 17.535V20.72H44.0516V0.28H62.0326V3.465H47.6902V8.61H60.2663V11.795H47.6902V17.535H62.3152ZM75.4212 20.72C81.9565 20.72 86.0544 16.905 86.0544 10.5C86.0544 4.13 81.9212 0.28 75.4212 0.28H65.6712V20.685H75.4212V20.72ZM69.3098 17.535H75.1386C79.9783 17.535 82.4158 15.155 82.4158 10.5C82.4158 5.845 79.9429 3.465 75.1033 3.465H69.2745L69.3098 17.535Z" fill="black"/>
<path fill-rule="evenodd" clip-rule="evenodd" d="M131.59 14.1048C130.919 18.1648 127.209 20.9998 121.522 20.9998C114.563 20.9998 110.218 16.5898 110.218 10.4998C110.147 4.54981 114.775 -0.0701916 121.522 -0.000191578C127.351 -0.000191578 130.989 3.11481 131.59 6.89481H127.775C127.245 4.54981 124.772 3.18481 121.769 3.18481H121.31C116.718 3.18481 113.856 6.40481 113.856 10.4998C113.856 14.6298 116.718 17.8148 121.31 17.8148H121.769C124.843 17.8148 127.174 16.5198 127.775 14.1048H131.59ZM152.468 17.5348V20.7198H134.84V0.279808H138.478V17.4998H152.468V17.5348ZM162.818 20.9998C168.824 20.9998 172.038 17.7448 172.038 12.6698V0.279808H168.435V12.4248C168.435 15.9248 166.563 17.8148 163.065 17.8148H162.606C159.109 17.8148 157.237 15.9248 157.237 12.4248V0.279808H153.598V12.6348C153.598 17.7798 156.707 20.9998 162.818 20.9998ZM195 15.1548C195 18.5148 192.103 20.6848 188.465 20.6848H176.525V0.279808H188.112C191.715 0.279808 194.506 2.37981 194.506 5.66981C194.506 6.68481 194.188 7.66481 193.622 8.50481C193.022 9.34481 192.209 9.97481 191.256 10.3248C193.375 10.7798 195 12.5998 195 15.1548ZM187.688 8.74981H180.163V3.46481H187.688C189.666 3.46481 190.867 4.44481 190.867 6.05481C190.867 7.80481 189.666 8.74981 187.688 8.74981ZM180.163 17.5348H187.9C190.055 17.5348 191.362 16.4498 191.362 14.6648C191.362 12.8798 190.055 11.9698 187.9 11.9698H180.163V17.5348Z" fill="black"/>
</g>
<defs>
<clipPath id="clip0_112_3248">
<rect width="195" height="21" fill="white"/>
</clipPath>
</defs>
</svg>
